<?xml version="1.0" encoding="iso-8859-1"?>
<!-- Generator: Adobe Illustrator 19.0.0, SVG Export Plug-In . SVG Version: 6.00 Build 0)  -->
<svg version="1.1" id="Capa_1" xmlns="http://www.w3.org/2000/svg" xmlns:xlink="http://www.w3.org/1999/xlink" x="0px" y="0px"
	 viewBox="0 0 478.075 478.075" style="enable-background:new 0 0 478.075 478.075;" xml:space="preserve">
<g>
	<g>
		<path d="M454.688,22.9h-196.3v-3c0-11-9-19.9-19.9-19.9s-19.9,9-19.9,19.9v3h-195.3c-11,0-19.9,9-19.9,19.9v276.9
			c0,11,9,19.9,19.9,19.9h181.2l-59.7,109.2c-5,9-2,21.9,8,26.9c9,5,21.9,2,26.9-8l59.8-109.3l59.8,109.3c5,10,16.9,13,26.9,8
			s13-16.9,8-26.9l-59.7-109.2h179.3c12,0,20.9-9,20.9-19.9V42.9C474.588,31.9,465.588,22.9,454.688,22.9z M434.788,299.9h-391.6
			V62.8h391.5v237.1H434.788z"/>
	</g>
</g>
<g>
</g>
<g>
</g>
<g>
</g>
<g>
</g>
<g>
</g>
<g>
</g>
<g>
</g>
<g>
</g>
<g>
</g>
<g>
</g>
<g>
</g>
<g>
</g>
<g>
</g>
<g>
</g>
<g>
</g>
</svg>
