<?xml version="1.0" encoding="utf-8"?>
<!-- Svg Vector Icons : http://www.onlinewebfonts.com/icon -->
<!DOCTYPE svg PUBLIC "-//W3C//DTD SVG 1.1//EN" "http://www.w3.org/Graphics/SVG/1.1/DTD/svg11.dtd">
<svg version="1.1" xmlns="http://www.w3.org/2000/svg" xmlns:xlink="http://www.w3.org/1999/xlink" x="0px" y="0px" viewBox="0 0 1000 1000" enable-background="new 0 0 1000 1000" xml:space="preserve">
<metadata> Svg Vector Icons : http://www.onlinewebfonts.com/icon </metadata>
<g><g transform="translate(0.000000,485.000000) scale(0.100000,-0.100000)"><path d="M155.6,4436l-55.5-55.5V611.8c0-4119-7.7-3820.4,109.1-3870.2c40.2-15.3,713.9-21,2589.7-17.2l2536.1,5.7l5.7,1517.8l3.9,1515.9h1435.5h1435.5v335v335h669.9h669.9v-335v-335h172.3H9900v2308.3v2308.3l-55.5,55.5l-55.5,55.5H5000H211.1L155.6,4436z M1784.5,3391v-756h-669.9H444.6v756v756h669.9h669.9V3391z M9555.5,3391v-756h-669.9h-669.9v756v756h669.9h669.9V3391z M1784.5,1534.4v-756h-669.9H444.6v756v756h669.9h669.9V1534.4z M9555.5,1534.4v-756h-669.9h-669.9v756v756h669.9h669.9V1534.4z M5241.2,1408c484.2-308.2,918.7-583.8,970.4-614.4c179.9-112.9,185.7-250.7,17.2-356c-49.8-30.6-484.2-306.2-968.5-614.4c-951.3-602.9-958.9-606.7-1054.6-509.1l-47.9,45.9V600.3c0,1110.1,3.8,1246,30.6,1284.3c32.5,45.9,88,76.6,143.6,78.5C4349.3,1965,4758.9,1714.3,5241.2,1408z M1784.5-322.3v-756h-669.9H444.6v756v756h669.9h669.9V-322.3z M1784.5-2178.9v-756.1h-669.9H444.6v756.1v756h669.9h669.9V-2178.9z"/><path d="M5842.2-2762.7v-2028.9h2028.9H9900v2028.9v2028.9H7871.1H5842.2V-2762.7z M9555.5-2762.7V-4447h-756h-756v1056.6V-2332l363.7-363.7l363.7-363.7l118.7,120.6l120.6,118.7l-570.4,568.5l-568.5,570.4l-564.6-564.6l-564.6-564.6l118.7-118.7l120.6-120.6l357.9,357.9l359.9,359.8v-1058.5V-4447h-756h-756v1684.4v1684.4h1684.3h1684.4V-2762.7z"/></g></g>
</svg>